HIERARCHY
ROOT Hips
{
    OFFSET 0.000000 0.000000 0.000000
    CHANNELS 6 Xposition Yposition Zposition Zrotation Yrotation Xrotation
    JOINT Chest
    {
        OFFSET 0.000000 1.634758 -0.000000
        CHANNELS 3 Zrotation Yrotation Xrotation
        JOINT Chest2
        {
            OFFSET 0.000000 2.197341 0.000000
            CHANNELS 3 Zrotation Yrotation Xrotation
            JOINT Neck
            {
                OFFSET 0.000000 0.961544 0.000000
                CHANNELS 3 Zrotation Yrotation Xrotation
                JOINT Head
                {
                    OFFSET 0.000000 0.632542 -0.032565
                    CHANNELS 3 Zrotation Yrotation Xrotation
                    End Site
                    {
                        OFFSET -0.000001 0.439502 2.922845
                    }
                }
            }
            JOINT LeftCollar
            {
                OFFSET 0.167536 0.778237 -0.168280
                CHANNELS 3 Zrotation Yrotation Xrotation
                JOINT LeftShoulder
                {
                    OFFSET 0.831514 -0.002900 0.006458
                    CHANNELS 3 Zrotation Yrotation Xrotation
                    JOINT LeftElbow
                    {
                        OFFSET 2.272872 -0.026639 0.059314
                        CHANNELS 3 Zrotation Yrotation Xrotation
                        JOINT LeftWrist
                        {
                            OFFSET 2.081982 -0.024402 0.054333
                            CHANNELS 3 Zrotation Yrotation Xrotation
                            JOINT LeftHandThumb1
                            {
                                OFFSET 0.218903 -0.128645 0.283837
                                CHANNELS 3 Zrotation Yrotation Xrotation
                                JOINT LeftHandThumb2
                                {
                                    OFFSET 0.137157 -0.025101 0.077902
                                    CHANNELS 3 Zrotation Yrotation Xrotation
                                    JOINT LeftHandThumb3
                                    {
                                        OFFSET 0.142771 -0.106576 0.042395
                                        CHANNELS 3 Zrotation Yrotation Xrotation
                                        End Site
                                        {
                                            OFFSET 0.234445 -0.115474 0.059481
                                        }
                                    }
                                }
                            }
                            JOINT LeftHandFore1
                            {
                                OFFSET 0.767340 -0.016076 0.196678
                                CHANNELS 3 Zrotation Yrotation Xrotation
                                JOINT LeftHandFore2
                                {
                                    OFFSET 0.166755 -0.138006 -0.011928
                                    CHANNELS 3 Zrotation Yrotation Xrotation
                                    JOINT LeftHandFore3
                                    {
                                        OFFSET 0.060102 -0.114159 -0.010889
                                        CHANNELS 3 Zrotation Yrotation Xrotation
                                        End Site
                                        {
                                            OFFSET 0.066034 -0.181273 -0.012107
                                        }
                                    }
                                }
                            }
                            JOINT LeftHandMiddle1
                            {
                                OFFSET 0.709887 -0.008320 0.018526
                                CHANNELS 3 Zrotation Yrotation Xrotation
                                JOINT LeftHandMiddle2
                                {
                                    OFFSET 0.172954 -0.173634 -0.001476
                                    CHANNELS 3 Zrotation Yrotation Xrotation
                                    JOINT LeftHandMiddle3
                                    {
                                        OFFSET 0.033347 -0.142272 0.005473
                                        CHANNELS 3 Zrotation Yrotation Xrotation
                                        End Site
                                        {
                                            OFFSET -0.011187 -0.235563 0.003877
                                        }
                                    }
                                }
                            }
                            JOINT LeftHandRing1
                            {
                                OFFSET 0.743817 -0.005823 -0.153668
                                CHANNELS 3 Zrotation Yrotation Xrotation
                                JOINT LeftHandRing2
                                {
                                    OFFSET 0.220537 -0.275777 -0.006616
                                    CHANNELS 3 Zrotation Yrotation Xrotation
                                    JOINT LeftHandRing3
                                    {
                                        OFFSET 0.026553 -0.133000 0.014540
                                        CHANNELS 3 Zrotation Yrotation Xrotation
                                        End Site
                                        {
                                            OFFSET -0.016929 -0.118693 0.006706
                                        }
                                    }
                                }
                            }
                            JOINT LeftHandLittle1
                            {
                                OFFSET 0.689408 -0.053302 -0.308304
                                CHANNELS 3 Zrotation Yrotation Xrotation
                                JOINT LeftHandLittle2
                                {
                                    OFFSET 0.151307 -0.122160 -0.015404
                                    CHANNELS 3 Zrotation Yrotation Xrotation
                                    JOINT LeftHandLittle3
                                    {
                                        OFFSET 0.042990 -0.112386 0.004199
                                        CHANNELS 3 Zrotation Yrotation Xrotation
                                        End Site
                                        {
                                            OFFSET 0.073530 -0.175632 0.005959
                                        }
                                    }
                                }
                            }
                        }
                    }
                }
            }
            JOINT RightCollar
            {
                OFFSET -0.167536 0.778237 -0.168280
                CHANNELS 3 Zrotation Yrotation Xrotation
                JOINT RightShoulder
                {
                    OFFSET -0.831514 -0.002900 0.006457
                    CHANNELS 3 Zrotation Yrotation Xrotation
                    JOINT RightElbow
                    {
                        OFFSET -2.272872 -0.026639 0.059313
                        CHANNELS 3 Zrotation Yrotation Xrotation
                        JOINT RightWrist
                        {
                            OFFSET -2.081982 -0.024402 0.054331
                            CHANNELS 3 Zrotation Yrotation Xrotation
                            JOINT RightHandThumb1
                            {
                                OFFSET -0.218911 -0.128571 0.283837
                                CHANNELS 3 Zrotation Yrotation Xrotation
                                JOINT RightHandThumb2
                                {
                                    OFFSET -0.137157 -0.025101 0.077902
                                    CHANNELS 3 Zrotation Yrotation Xrotation
                                    JOINT RightHandThumb3
                                    {
                                        OFFSET -0.177649 -0.044489 0.000990
                                        CHANNELS 3 Zrotation Yrotation Xrotation
                                        End Site
                                        {
                                            OFFSET -0.249429 -0.088811 0.041642
                                        }
                                    }
                                }
                            }
                            JOINT RightHandFore1
                            {
                                OFFSET -0.767344 -0.015991 0.196679
                                CHANNELS 3 Zrotation Yrotation Xrotation
                                JOINT RightHandFore2
                                {
                                    OFFSET -0.166790 -0.137971 -0.011919
                                    CHANNELS 3 Zrotation Yrotation Xrotation
                                    JOINT RightHandFore3
                                    {
                                        OFFSET -0.060238 -0.113726 -0.014141
                                        CHANNELS 3 Zrotation Yrotation Xrotation
                                        End Site
                                        {
                                            OFFSET -0.066647 -0.179046 -0.029454
                                        }
                                    }
                                }
                            }
                            JOINT RightHandMiddle1
                            {
                                OFFSET -0.709887 -0.008302 0.018525
                                CHANNELS 3 Zrotation Yrotation Xrotation
                                JOINT RightHandMiddle2
                                {
                                    OFFSET -0.172935 -0.173647 -0.001461
                                    CHANNELS 3 Zrotation Yrotation Xrotation
                                    JOINT RightHandMiddle3
                                    {
                                        OFFSET -0.037055 -0.138759 0.027519
                                        CHANNELS 3 Zrotation Yrotation Xrotation
                                        End Site
                                        {
                                            OFFSET -0.000225 -0.224771 0.071474
                                        }
                                    }
                                }
                            }
                            JOINT RightHandRing1
                            {
                                OFFSET -0.743819 -0.005785 -0.153669
                                CHANNELS 3 Zrotation Yrotation Xrotation
                                JOINT RightHandRing2
                                {
                                    OFFSET -0.220556 -0.275762 -0.006621
                                    CHANNELS 3 Zrotation Yrotation Xrotation
                                    JOINT RightHandRing3
                                    {
                                        OFFSET -0.024592 -0.134098 -0.004216
                                        CHANNELS 3 Zrotation Yrotation Xrotation
                                        End Site
                                        {
                                            OFFSET 0.016552 -0.118465 0.010596
                                        }
                                    }
                                }
                            }
                            JOINT RightHandLittle1
                            {
                                OFFSET -0.689403 -0.053298 -0.308303
                                CHANNELS 3 Zrotation Yrotation Xrotation
                                JOINT RightHandLittle2
                                {
                                    OFFSET -0.151312 -0.122158 -0.015407
                                    CHANNELS 3 Zrotation Yrotation Xrotation
                                    JOINT RightHandLittle3
                                    {
                                        OFFSET -0.049392 -0.107020 0.024547
                                        CHANNELS 3 Zrotation Yrotation Xrotation
                                        End Site
                                        {
                                            OFFSET -0.082750 -0.167895 0.035387
                                        }
                                    }
                                }
                            }
                        }
                    }
                }
            }
        }
    }
    JOINT LeftHip
    {
        OFFSET 0.685143 0.673822 -0.044491
        CHANNELS 3 Zrotation Yrotation Xrotation
        JOINT LeftKnee
        {
            OFFSET 0.085364 -3.750208 0.017676
            CHANNELS 3 Zrotation Yrotation Xrotation
            JOINT LeftAnkle
            {
                OFFSET 0.094583 -4.155206 0.019585
                CHANNELS 3 Zrotation Yrotation Xrotation
                JOINT LeftToe
                {
                    OFFSET -0.000000 -0.395925 0.621478
                    CHANNELS 3 Zrotation Yrotation Xrotation
                    End Site
                    {
                        OFFSET -0.000000 -0.077878 0.321152
                    }
                }
            }
        }
    }
    JOINT RightHip
    {
        OFFSET -0.685143 0.673822 -0.044492
        CHANNELS 3 Zrotation Yrotation Xrotation
        JOINT RightKnee
        {
            OFFSET -0.085364 -3.750208 0.017677
            CHANNELS 3 Zrotation Yrotation Xrotation
            JOINT RightAnkle
            {
                OFFSET -0.094583 -4.155206 0.019585
                CHANNELS 3 Zrotation Yrotation Xrotation
                JOINT RightToe
                {
                    OFFSET -0.000000 -0.395925 0.621478
                    CHANNELS 3 Zrotation Yrotation Xrotation
                    End Site
                    {
                        OFFSET -0.000000 -0.077878 0.321152
                    }
                }
            }
        }
    }
}
MOTION
Frames: 4
Frame Time: 0.033333
-0.542535 6.190757 9.796565 -158.733200 -10.559171 172.153885 4.483479 -2.769094 -7.321492 -2.249014 0.694905 -1.292356 50.941029 -4.400529 3.156348 0.391232 -7.555051 9.292171 -10.897710 -3.314661 0.132085 -33.781166 6.415042 61.085987 159.302185 -88.049820 -159.987915 36.369240 -43.824028 -9.340595 0.000009 0.000012 0.000004 -0.597193 -28.406843 10.922365 2.663305 -12.434128 -1.692770 44.065887 -12.833004 -5.293851 20.828697 -0.999610 -1.121783 8.423702 -5.909484 4.683119 43.068527 -15.046649 5.561028 22.149683 18.938004 -4.363734 3.017898 -11.320192 -0.755022 38.815254 -5.522046 4.321554 0.287237 -7.736461 2.933013 15.027061 11.534365 -2.174453 29.496691 -12.290074 17.938368 -1.593763 -1.688553 2.779980 7.094263 0.012245 1.330410 6.697666 0.952221 -0.092874 14.200322 -19.482033 56.488888 -178.118881 56.460129 -178.997330 -18.393074 1.180415 27.948759 -0.000003 0.000009 -0.000020 -15.177141 -4.712982 -25.317825 -9.119977 3.804166 -8.439173 -44.065952 12.832680 -5.296698 -20.511562 3.917984 -1.208151 -9.240457 -3.688551 -5.443672 -43.068394 15.045522 5.563176 -21.855263 13.289208 13.359250 0.879162 -11.659915 0.703377 -38.815239 5.522295 4.321369 0.015221 -7.766666 -2.887167 -14.874301 10.181713 5.535717 -29.496790 12.290047 17.938225 0.435408 -1.199920 -3.374856 -5.890023 -3.159154 2.894889 51.930168 -2.338315 -39.552483 0.942133 1.252744 73.887047 -18.228651 -0.809549 -30.282658 0.080290 0.371708 -1.442060 6.029015 2.236616 -26.691355 -1.046220 -1.278271 78.599602 6.803857 -31.121214 -42.451637 0.000001 0.000008 -0.000007
-0.629201 6.163043 9.813462 -163.012100 -7.400966 172.720490 4.183228 -2.161794 -7.662970 -2.729066 0.653760 -1.371924 48.982800 -3.787852 3.780967 0.329104 -6.366167 10.418634 -10.586247 -3.197583 0.123535 -32.598579 7.875128 60.326206 171.104294 -85.326981 -171.806641 32.452888 -40.194996 -4.760003 -0.000003 0.000003 0.000015 -0.597192 -28.406847 10.922365 2.663302 -12.434130 -1.692772 44.065876 -12.833020 -5.293850 20.828691 -0.999606 -1.121782 8.423702 -5.909487 4.683114 43.068516 -15.046658 5.561032 22.149685 18.938007 -4.363731 3.017897 -11.320193 -0.755019 38.815239 -5.522066 4.321554 0.287237 -7.736457 2.933013 15.027061 11.534358 -2.174456 29.496677 -12.290085 17.938370 -1.593759 -1.688560 2.779976 7.094257 0.012250 1.330417 7.391993 1.147111 -0.099022 18.054888 -16.934841 57.374821 -177.958023 60.818928 -178.808746 -18.476580 6.325536 26.100155 -0.000003 0.000017 -0.000015 -15.177145 -4.712984 -25.317827 -9.119979 3.804160 -8.439176 -44.065948 12.832678 -5.296707 -20.511566 3.917984 -1.208154 -9.240457 -3.688546 -5.443673 -43.068390 15.045517 5.563168 -21.855263 13.289201 13.359255 0.879160 -11.659914 0.703378 -38.815239 5.522288 4.321363 0.015224 -7.766663 -2.887173 -14.874296 10.181710 5.535714 -29.496798 12.290046 17.938210 0.435412 -1.199911 -3.374854 -5.890018 -3.159156 2.894885 47.605377 -2.302442 -37.283012 0.983341 1.263916 75.763260 -15.363175 1.249997 -32.475174 0.000001 -0.000009 -0.000007 0.852674 2.253274 -27.504593 -1.075174 -1.283772 79.894707 6.689093 -27.348553 -43.151363 0.000005 0.000012 -0.000013
-0.705026 6.156711 9.838078 -166.804367 -4.061334 173.521530 5.012763 -2.018631 -8.341737 -2.238682 0.561205 -1.768010 46.802288 -3.022380 4.531038 0.256481 -4.969148 11.690286 -10.222356 -2.987193 0.103625 -31.624237 9.596538 59.648174 174.614426 -81.847542 -175.337387 29.187891 -36.881645 -1.065053 -0.000003 0.000007 0.000006 -0.597194 -28.406843 10.922365 2.663308 -12.434127 -1.692773 44.065876 -12.833006 -5.293864 20.828695 -0.999610 -1.121783 8.423702 -5.909483 4.683116 43.068523 -15.046647 5.561024 22.149683 18.938002 -4.363732 3.017901 -11.320190 -0.755020 38.815258 -5.522057 4.321540 0.287238 -7.736454 2.933012 15.027057 11.534365 -2.174455 29.496685 -12.290075 17.938353 -1.593760 -1.688564 2.779976 7.094266 0.012248 1.330411 8.065277 1.380949 -0.095469 21.252663 -14.545144 58.364758 -177.720520 65.449387 -178.542435 -18.650702 10.713287 24.456917 -0.000002 -0.000005 -0.000005 -15.177145 -4.712980 -25.317829 -9.119978 3.804161 -8.439173 -44.065952 12.832670 -5.296688 -20.511562 3.917985 -1.208149 -9.240453 -3.688549 -5.443673 -43.068386 15.045504 5.563179 -21.855268 13.289207 13.359251 0.879157 -11.659912 0.703375 -38.815243 5.522287 4.321375 0.015228 -7.766665 -2.887171 -14.874303 10.181712 5.535716 -29.496786 12.290043 17.938221 0.435406 -1.199915 -3.374857 -5.890022 -3.159156 2.894885 43.692924 -2.271608 -35.547623 1.025583 1.273890 77.670769 -13.794235 3.027379 -34.105629 0.000006 0.000020 0.000011 -3.819283 2.291283 -29.041439 -1.093947 -1.286974 80.731598 6.741389 -23.375229 -43.368702 0.000000 0.000003 -0.000000
-0.777415 6.166971 9.867190 -170.224442 -1.810067 174.439865 6.272107 -1.735816 -9.131286 -1.381433 0.412414 -2.253351 45.256489 -2.564451 5.039148 0.221054 -4.285622 12.409821 -9.817302 -2.812124 0.071381 -30.615114 10.745395 58.786606 176.021088 -78.345192 -176.764923 26.230795 -33.240944 2.319586 -0.000003 -0.000000 0.000002 -0.597193 -28.406839 10.922359 2.663311 -12.434129 -1.692769 44.065884 -12.833000 -5.293851 20.828690 -0.999608 -1.121778 8.423704 -5.909489 4.683109 43.068531 -15.046658 5.561023 22.149691 18.938011 -4.363732 3.017897 -11.320192 -0.755021 38.815247 -5.522051 4.321541 0.287239 -7.736453 2.933010 15.027059 11.534358 -2.174450 29.496681 -12.290083 17.938362 -1.593760 -1.688563 2.779976 7.094262 0.012247 1.330405 8.378146 1.607082 -0.075237 22.257587 -12.902130 59.387451 -177.565598 67.730400 -178.373474 -18.824749 13.839134 23.205328 -0.000004 0.000002 0.000000 -15.177141 -4.712975 -25.317825 -9.119984 3.804159 -8.439171 -44.065948 12.832678 -5.296693 -20.511566 3.917982 -1.208151 -9.240453 -3.688549 -5.443673 -43.068390 15.045521 5.563172 -21.855263 13.289206 13.359249 0.879160 -11.659913 0.703379 -38.815243 5.522290 4.321361 0.015226 -7.766667 -2.887162 -14.874299 10.181714 5.535712 -29.496794 12.290040 17.938219 0.435406 -1.199915 -3.374855 -5.890019 -3.159151 2.894888 39.984653 -2.265350 -35.100163 1.063946 1.281670 79.390953 -13.417306 3.913170 -34.919216 0.000005 0.000003 0.000005 -7.880034 2.333980 -30.739546 -1.103146 -1.288443 81.140900 7.687910 -20.506445 -43.415199 -0.000001 -0.000003 0.000008
